<svg width="213" height="42" viewBox="0 0 213 42" fill="none" xmlns="http://www.w3.org/2000/svg">
<path d="M72.5931 24.1727L71.6312 27.1036H81.6109L80.108 31.7266H63.9962L70.1884 12.6906H85.9094L84.4365 17.2532H74.8175L74.0059 19.7914H82.0919L80.649 24.1424H72.5931V24.1727ZM44.1571 29.5813L50.229 35.6849L44.1571 41.7885L38.0851 35.6849L23.5965 21.1209H23.6266L32.0131 12.4489L27.1135 7.67482L13.8874 21.3022L27.2638 34.7482L32.2235 29.7626L38.2955 35.8662L32.1935 42L26.2117 35.9871L20.5605 41.6978L14.4886 35.5942L-5.73335e-08 21L0.0300593 20.9698L14.3082 6.19424L20.29 -5.76321e-08L26.392 6.01295L31.8929 0.332374L37.9348 6.22446L43.8264 0.120863L49.9886 6.13381L44.0068 12.3281L39.0169 7.43309L25.8209 21.0906L39.1973 34.5367L44.1571 29.5813ZM20.4403 12.2072L15.4505 7.31223L2.25445 20.9698L15.6308 34.4158L20.1698 29.8532L11.663 21.3022L20.4403 12.2072ZM95.4382 12.7209H89.3362L83.1439 31.7568H98.1135L99.7667 26.7108H90.8992L95.4382 12.7209ZM67.934 12.7209H49.5076L47.8844 17.7065H54.1368L49.5677 31.7266H55.6998L60.2688 17.7065H66.3408L67.934 12.7209ZM158.773 12.7209L155.857 21.695C155.587 22.541 155.406 23.2964 155.286 23.9612L155.226 24.2935L154.895 22.813C154.865 22.6014 154.835 22.3899 154.835 22.1784C154.805 21.9669 154.775 21.7554 154.715 21.5741L152.07 12.7209H146.268L140.076 31.7568H145.878L148.763 22.8432C149.034 22.0273 149.214 21.2719 149.334 20.577L149.395 20.2748C149.485 20.6374 149.545 20.9698 149.605 21.3022C149.785 22.3899 149.906 22.9338 149.906 22.9942L152.581 31.7871H158.352L164.544 12.7511H158.773V12.7209ZM206.958 31.7568L206.988 29.2489H199.894L198.271 31.7568H193.281L192.92 30.8201L205.726 12.7209H211.918L213 31.7568H206.958ZM207.108 25.2302L206.928 18.6432L202.449 25.2302H207.108ZM198.542 12.7209H191.177L182.61 19.0058L184.654 12.7209H178.612L172.42 31.7568H178.492L180.476 25.6835L183.001 24.1122L185.796 31.7266H192.319L192.981 30.7899L188.832 19.7007L198.542 12.7209ZM140.617 21.1511C140.557 21.3928 140.437 21.7554 140.287 22.2389C139.265 25.3209 137.551 27.7683 135.207 29.5511C132.862 31.3338 130.127 32.2403 127 32.2403C124.355 32.2403 122.371 31.5453 121.079 30.1554C119.786 28.7655 119.335 26.8921 119.696 24.4748C119.786 23.8403 119.967 23.0849 120.237 22.2389C121.259 19.2173 122.942 16.7698 125.347 14.9568C127.722 13.1439 130.457 12.2374 133.523 12.2374C136.199 12.2374 138.152 12.9324 139.445 14.2921C140.738 15.6518 141.188 17.5554 140.828 19.9727C140.738 20.5165 140.677 20.9094 140.617 21.1511ZM134.605 20.3957C134.756 19.3683 134.666 18.5525 134.335 18.0086C133.914 17.3439 133.163 17.0115 131.99 17.0115C130.547 17.0115 129.345 17.5252 128.353 18.613C127.602 19.459 126.94 20.6676 126.429 22.2691C126.339 22.5712 126.249 22.8734 126.159 23.2058C126.069 23.5381 126.008 23.8403 125.978 24.1424C125.828 25.1698 125.918 25.9856 126.249 26.5295C126.67 27.1942 127.451 27.5266 128.594 27.5266C130.006 27.5266 131.209 27.013 132.201 25.9554C132.982 25.1094 133.644 23.9007 134.155 22.2993C134.365 21.5137 134.515 20.8791 134.605 20.3957ZM168.482 12.7209L162.29 31.7568H168.542L174.735 12.7209H168.482ZM121.981 12.7209H103.554L101.901 17.7065H108.153L103.584 31.7266H109.716L114.285 17.7065H120.357L121.981 12.7209Z" fill="#0054A6"/>
</svg>
